<svg width="23" height="23" viewBox="0 0 23 23" fill="none" xmlns="http://www.w3.org/2000/svg">
<g clip-path="url(#clip0_2001_342)">
<path d="M10.6154 10.3086L1.21289 20.2283C1.31847 20.6051 1.50821 20.9526 1.7676 21.2443C2.027 21.5359 2.34918 21.764 2.70953 21.9111C3.06987 22.0581 3.45883 22.1202 3.84668 22.0927C4.23453 22.0652 4.61099 21.9487 4.94729 21.7522L15.5269 15.6847L10.6154 10.3086Z" fill="#EA4335"/>
<path d="M20.1233 8.62109L15.5481 5.98242L10.3984 10.5331L15.5691 15.6693L20.1093 13.0589C20.5115 12.8468 20.8484 12.5279 21.0835 12.1368C21.3186 11.7456 21.4428 11.2972 21.4428 10.84C21.4428 10.3828 21.3186 9.93432 21.0835 9.54318C20.8484 9.15204 20.5115 8.83316 20.1093 8.62109H20.1233Z" fill="#FBBC04"/>
<path d="M1.21301 1.4043C1.15617 1.61588 1.12789 1.8342 1.12893 2.05338V19.5787C1.1295 19.7977 1.15775 20.0159 1.21301 20.2278L10.9379 10.562L1.21301 1.4043Z" fill="#4285F4"/>
<path d="M10.6855 10.8158L15.5479 5.98292L4.98232 -0.112832C4.58484 -0.347251 4.13276 -0.471405 3.67213 -0.472651C3.11581 -0.473761 2.57439 -0.291664 2.1304 0.0458828C1.6864 0.38343 1.3642 0.85791 1.21289 1.397L10.6855 10.8158Z" fill="#34A853"/>
</g>
<defs>
<clipPath id="clip0_2001_342">
<rect width="22.5709" height="22.5709" fill="white"/>
</clipPath>
</defs>
</svg>
